<svg viewBox="0 0 500 500" xmlns="http://www.w3.org/2000/svg">
  <defs></defs>
  <g transform="matrix(1, 0, 0, 1, 1.864237, -13.405625)"></g>
  <g transform="matrix(1, 0, 0, 1, 1.864237, -13.405625)"></g>
  <g transform="matrix(1, 0, 0, 1, 1.864237, -13.405625)"></g>
  <g transform="matrix(1, 0, 0, 1, 1.864237, -13.405625)"></g>
  <g transform="matrix(1, 0, 0, 1, 1.864237, -13.405625)"></g>
  <g transform="matrix(1, 0, 0, 1, 1.864237, -13.405625)"></g>
  <g transform="matrix(1, 0, 0, 1, 1.864237, -13.405625)"></g>
  <g transform="matrix(1, 0, 0, 1, 1.864237, -13.405625)"></g>
  <g transform="matrix(1, 0, 0, 1, 1.864237, -13.405625)"></g>
  <g transform="matrix(1, 0, 0, 1, 1.864237, -13.405625)"></g>
  <g transform="matrix(1, 0, 0, 1, 1.864237, -13.405625)"></g>
  <g transform="matrix(1, 0, 0, 1, 1.864237, -13.405625)"></g>
  <g transform="matrix(1, 0, 0, 1, 1.864237, -13.405625)"></g>
  <g transform="matrix(1, 0, 0, 1, 1.864237, -13.405625)"></g>
  <g transform="matrix(1, 0, 0, 1, 1.864237, -13.405625)"></g>
  <path d="M 186.438 140.964 L 186.438 131.842 C 186.594 128.541 187.77 125.761 189.964 123.502 C 192.158 121.243 194.743 120.113 197.721 120.113 L 209.004 120.113 L 209.004 115.943 C 209.004 112.469 210.101 109.514 212.295 107.082 C 214.49 104.65 217.153 103.433 220.287 103.433 L 257.898 103.433 C 261.033 103.433 263.697 104.65 265.891 107.082 C 268.085 109.514 269.182 112.469 269.182 115.943 L 269.182 120.113 L 280.465 120.113 C 283.442 120.113 286.028 121.243 288.222 123.502 C 290.416 125.761 291.592 128.541 291.748 131.842 L 291.748 140.964 C 291.748 143.223 291.004 145.178 289.515 146.829 C 288.026 148.479 286.263 149.305 284.226 149.305 L 284.226 220.197 C 284.226 224.888 282.776 228.841 279.877 232.056 C 276.978 235.27 273.413 236.878 269.182 236.877 L 209.004 236.877 C 204.773 236.877 201.208 235.27 198.309 232.056 C 195.409 228.841 193.96 224.888 193.96 220.197 L 193.96 149.305 C 191.923 149.305 190.16 148.479 188.671 146.829 C 187.182 145.178 186.438 143.223 186.438 140.964 Z M 193.96 140.964 L 284.226 140.964 L 284.226 132.624 C 284.226 131.408 283.873 130.409 283.168 129.627 C 282.463 128.845 281.562 128.454 280.465 128.454 L 197.721 128.454 C 196.624 128.454 195.723 128.845 195.018 129.627 C 194.312 130.409 193.96 131.408 193.96 132.624 L 193.96 140.964 Z M 201.482 220.197 C 201.482 222.455 202.227 224.41 203.715 226.061 C 205.204 227.712 206.967 228.537 209.004 228.537 L 269.182 228.537 C 271.219 228.537 272.982 227.712 274.471 226.061 C 275.959 224.41 276.704 222.456 276.704 220.197 L 276.704 149.305 L 201.482 149.305 L 201.482 220.197 Z M 209.004 216.027 L 209.004 161.815 C 209.004 160.599 209.357 159.6 210.062 158.818 C 210.768 158.036 211.668 157.645 212.766 157.645 L 220.287 157.645 C 221.384 157.645 222.286 158.036 222.991 158.818 C 223.696 159.6 224.049 160.599 224.049 161.815 L 224.049 216.027 C 224.049 217.243 223.696 218.242 222.991 219.024 C 222.286 219.806 221.384 220.197 220.287 220.197 L 212.766 220.197 C 211.668 220.197 210.768 219.806 210.062 219.024 C 209.357 218.242 209.004 217.243 209.004 216.027 Z M 212.765 216.027 L 220.287 216.027 L 220.287 161.815 L 212.765 161.815 L 212.765 216.027 Z M 216.527 120.113 L 261.659 120.113 L 261.659 115.943 C 261.659 114.727 261.307 113.728 260.602 112.946 C 259.896 112.164 258.995 111.773 257.898 111.773 L 220.287 111.773 C 219.19 111.773 218.289 112.164 217.584 112.946 C 216.879 113.728 216.526 114.727 216.526 115.943 L 216.526 120.113 L 216.527 120.113 Z M 231.571 216.027 L 231.571 161.815 C 231.571 160.599 231.923 159.6 232.628 158.818 C 233.334 158.036 234.235 157.645 235.332 157.645 L 242.854 157.645 C 243.951 157.645 244.852 158.036 245.558 158.818 C 246.262 159.6 246.615 160.599 246.615 161.815 L 246.615 216.027 C 246.615 217.243 246.262 218.242 245.558 219.024 C 244.852 219.806 243.951 220.197 242.854 220.197 L 235.332 220.197 C 234.235 220.197 233.334 219.806 232.628 219.024 C 231.923 218.242 231.571 217.243 231.571 216.027 Z M 235.332 216.027 L 242.854 216.027 L 242.854 161.815 L 235.332 161.815 L 235.332 216.027 Z M 254.137 216.027 L 254.137 161.815 C 254.137 160.599 254.49 159.6 255.195 158.818 C 255.9 158.036 256.802 157.645 257.899 157.645 L 265.421 157.645 C 266.517 157.645 267.418 158.036 268.124 158.818 C 268.829 159.6 269.182 160.599 269.182 161.815 L 269.182 216.027 C 269.182 217.243 268.829 218.242 268.124 219.024 C 267.418 219.806 266.517 220.197 265.421 220.197 L 257.899 220.197 C 256.802 220.197 255.9 219.806 255.195 219.024 C 254.49 218.242 254.137 217.243 254.137 216.027 Z M 257.898 216.027 L 265.421 216.027 L 265.421 161.815 L 257.898 161.815 L 257.898 216.027 Z" style="fill: rgb(216, 12, 19);"></path>
</svg>
